<?xml version="1.0"?>
<svg xmlns="http://www.w3.org/2000/svg" width="512" height="512" viewBox="0 0 512 512"><g><path d="M104,320a24,24,0,1,0,24,24A24.028,24.028,0,0,0,104,320Zm0,32a8,8,0,1,1,8-8A8.009,8.009,0,0,1,104,352Z"/><path d="M408,320a24,24,0,1,0,24,24A24.028,24.028,0,0,0,408,320Zm0,32a8,8,0,1,1,8-8A8.009,8.009,0,0,1,408,352Z"/><path d="M488,304V256a48.051,48.051,0,0,0-48-48H373.54l-22-58.68A43.052,43.052,0,0,0,310.7,120H160a43.044,43.044,0,0,0-40.72,28.97L90.96,208H72a48.051,48.051,0,0,0-48,48v48A16.021,16.021,0,0,0,8,320v16a16.021,16.021,0,0,0,16,16H48.58a55.994,55.994,0,0,0,110.84,0H352.58a55.994,55.994,0,0,0,110.84,0H488a16.021,16.021,0,0,0,16-16V320A16.021,16.021,0,0,0,488,304ZM356.46,208H256V160h82.46ZM40,264H56v8H40Zm8.58,72H24V320H53.41A55.5,55.5,0,0,0,48.58,336ZM104,384a40,40,0,1,1,40-40A40.04,40.04,0,0,1,104,384Zm248.58-48H159.42a55.5,55.5,0,0,0-4.83-16H357.41A55.5,55.5,0,0,0,352.58,336ZM408,384a40,40,0,1,1,40-40A40.04,40.04,0,0,1,408,384Zm40-80a7.337,7.337,0,0,0-.81.05,55.871,55.871,0,0,0-78.37-.01A7.383,7.383,0,0,0,368,304H144a7.383,7.383,0,0,0-.82.04,55.871,55.871,0,0,0-78.37.01A7.337,7.337,0,0,0,64,304H40V288H64a8,8,0,0,0,8-8V256a8,8,0,0,0-8-8H41.01A32.058,32.058,0,0,1,72,224H96a8,8,0,0,0,7.21-4.54l30.71-64a7.5,7.5,0,0,0,.37-.93A27.079,27.079,0,0,1,160,136H310.7a27.027,27.027,0,0,1,19.22,8H160a8,8,0,0,0-8,8v64a8,8,0,0,0,8,8H440a32.058,32.058,0,0,1,30.99,24H448a8,8,0,0,0-8,8v24a8,8,0,0,0,8,8h24v16ZM240,160v48H168V160ZM472,264v8H456v-8Zm16,72H463.42a55.5,55.5,0,0,0-4.83-16H488Z"/><path d="M256,248h40a8,8,0,0,0,0-16H256a8,8,0,0,0,0,16Z"/></g></svg>
