<svg height="448pt" viewBox="0 0 448 448" width="448pt" xmlns="http://www.w3.org/2000/svg"><path d="m352 320c-35.347656 0-64 28.652344-64 64s28.652344 64 64 64 64-28.652344 64-64c-.039062-35.328125-28.671875-63.960938-64-64zm0 96c-17.671875 0-32-14.328125-32-32s14.328125-32 32-32 32 14.328125 32 32-14.328125 32-32 32zm0 0"/><path d="m272 248c-4.417969 0-8-3.582031-8-8v-168h-20.464844c13.726563 48.90625-4.824218 101.152344-46.320312 130.453125-41.492188 29.296875-96.9375 29.296875-138.429688 0-41.496094-29.300781-60.046875-81.546875-46.320312-130.453125h-12.464844v264h32.152344c15.042968-20.140625 38.710937-32 63.847656-32s48.804688 11.859375 63.847656 32h128.304688c15.042968-20.140625 38.710937-32 63.847656-32s48.804688 11.859375 63.847656 32h32.152344v-88zm0 0"/><path d="m368 384c0 8.835938-7.164062 16-16 16s-16-7.164062-16-16 7.164062-16 16-16 16 7.164062 16 16zm0 0"/><path d="m112 384c0 8.835938-7.164062 16-16 16s-16-7.164062-16-16 7.164062-16 16-16 16 7.164062 16 16zm0 0"/><path d="m409.921875 104h-129.921875v128h165.480469zm0 0"/><path d="m96 320c-35.347656 0-64 28.652344-64 64s28.652344 64 64 64 64-28.652344 64-64c-.039062-35.328125-28.671875-63.960938-64-64zm0 96c-17.671875 0-32-14.328125-32-32s14.328125-32 32-32 32 14.328125 32 32-14.328125 32-32 32zm0 0"/><path d="m128 208c57.4375 0 104-46.5625 104-104s-46.5625-104-104-104-104 46.5625-104 104c.066406 57.410156 46.589844 103.933594 104 104zm-80-112h72v-72h16v72h72v16h-72v64h-16v-64h-72zm0 0"/></svg>